<?xml version="1.0" encoding="UTF-8"?>
<svg xmlns="http://www.w3.org/2000/svg" width="1080" height="994" viewBox="0 0 1080 994" role="img">
  <title>AsyncDataLoader WSL2 256 MiB Reference Matrix: whole-process peak RSS</title>
  <rect width="100%" height="100%" fill="white"/>
  <style>text { font-family: sans-serif; fill: #1f2937; } .label { font-size: 11px; } .value { font-size: 11px; font-weight: 600; }</style>
  <text x="12" y="27" font-size="18" font-weight="700">AsyncDataLoader WSL2 256 MiB Reference Matrix: whole-process peak RSS</text>
  <text x="410" y="45" font-size="10">gray = BufferPool payload, colored = process RSS</text>
  <rect x="410" y="58" width="44.5" height="8" fill="#cbd5e1"/>
  <text class="label" x="6" y="80">Sync | block=1.00 MiB | buffers=3 | queue=1</text>
  <rect x="410" y="69" width="101.5" height="12" rx="2" fill="#0891b2"/>
  <text class="value" x="516.5" y="80">6.852 MiB</text>
  <rect x="410" y="96" width="44.5" height="8" fill="#cbd5e1"/>
  <text class="label" x="6" y="118">ThreadPool | block=1.00 MiB | buffers=3 | queue=1</text>
  <rect x="410" y="107" width="98.8" height="12" rx="2" fill="#0891b2"/>
  <text class="value" x="513.8" y="118">6.664 MiB</text>
  <rect x="410" y="134" width="44.5" height="8" fill="#cbd5e1"/>
  <text class="label" x="6" y="156">io_uring | block=1.00 MiB | buffers=3 | queue=1</text>
  <rect x="410" y="145" width="101.7" height="12" rx="2" fill="#0891b2"/>
  <text class="value" x="516.7" y="156">6.859 MiB</text>
  <rect x="410" y="172" width="44.5" height="8" fill="#cbd5e1"/>
  <text class="label" x="6" y="194">Sync | block=1.00 MiB | buffers=3 | queue=4</text>
  <rect x="410" y="183" width="101.9" height="12" rx="2" fill="#0891b2"/>
  <text class="value" x="516.9" y="194">6.879 MiB</text>
  <rect x="410" y="210" width="44.5" height="8" fill="#cbd5e1"/>
  <text class="label" x="6" y="232">ThreadPool | block=1.00 MiB | buffers=3 | queue=4</text>
  <rect x="410" y="221" width="99.2" height="12" rx="2" fill="#0891b2"/>
  <text class="value" x="514.2" y="232">6.691 MiB</text>
  <rect x="410" y="248" width="44.5" height="8" fill="#cbd5e1"/>
  <text class="label" x="6" y="270">io_uring | block=1.00 MiB | buffers=3 | queue=4</text>
  <rect x="410" y="259" width="102.3" height="12" rx="2" fill="#0891b2"/>
  <text class="value" x="517.3" y="270">6.902 MiB</text>
  <rect x="410" y="286" width="118.6" height="8" fill="#cbd5e1"/>
  <text class="label" x="6" y="308">Sync | block=1.00 MiB | buffers=8 | queue=1</text>
  <rect x="410" y="297" width="129.7" height="12" rx="2" fill="#0891b2"/>
  <text class="value" x="544.7" y="308">8.754 MiB</text>
  <rect x="410" y="324" width="118.6" height="8" fill="#cbd5e1"/>
  <text class="label" x="6" y="346">ThreadPool | block=1.00 MiB | buffers=8 | queue=1</text>
  <rect x="410" y="335" width="129.7" height="12" rx="2" fill="#0891b2"/>
  <text class="value" x="544.7" y="346">8.754 MiB</text>
  <rect x="410" y="362" width="118.6" height="8" fill="#cbd5e1"/>
  <text class="label" x="6" y="384">io_uring | block=1.00 MiB | buffers=8 | queue=1</text>
  <rect x="410" y="373" width="129.9" height="12" rx="2" fill="#0891b2"/>
  <text class="value" x="544.9" y="384">8.762 MiB</text>
  <rect x="410" y="400" width="118.6" height="8" fill="#cbd5e1"/>
  <text class="label" x="6" y="422">Sync | block=1.00 MiB | buffers=8 | queue=4</text>
  <rect x="410" y="411" width="174.2" height="12" rx="2" fill="#0891b2"/>
  <text class="value" x="589.2" y="422">11.754 MiB</text>
  <rect x="410" y="438" width="118.6" height="8" fill="#cbd5e1"/>
  <text class="label" x="6" y="460">ThreadPool | block=1.00 MiB | buffers=8 | queue=4</text>
  <rect x="410" y="449" width="174.2" height="12" rx="2" fill="#0891b2"/>
  <text class="value" x="589.2" y="460">11.754 MiB</text>
  <rect x="410" y="476" width="118.6" height="8" fill="#cbd5e1"/>
  <text class="label" x="6" y="498">io_uring | block=1.00 MiB | buffers=8 | queue=4</text>
  <rect x="410" y="487" width="174.3" height="12" rx="2" fill="#0891b2"/>
  <text class="value" x="589.3" y="498">11.762 MiB</text>
  <rect x="410" y="514" width="177.8" height="8" fill="#cbd5e1"/>
  <text class="label" x="6" y="536">Sync | block=4.00 MiB | buffers=3 | queue=1</text>
  <rect x="410" y="525" width="235.3" height="12" rx="2" fill="#0891b2"/>
  <text class="value" x="650.3" y="536">15.879 MiB</text>
  <rect x="410" y="552" width="177.8" height="8" fill="#cbd5e1"/>
  <text class="label" x="6" y="574">ThreadPool | block=4.00 MiB | buffers=3 | queue=1</text>
  <rect x="410" y="563" width="232.6" height="12" rx="2" fill="#0891b2"/>
  <text class="value" x="647.6" y="574">15.691 MiB</text>
  <rect x="410" y="590" width="177.8" height="8" fill="#cbd5e1"/>
  <text class="label" x="6" y="612">io_uring | block=4.00 MiB | buffers=3 | queue=1</text>
  <rect x="410" y="601" width="235.4" height="12" rx="2" fill="#0891b2"/>
  <text class="value" x="650.4" y="612">15.887 MiB</text>
  <rect x="410" y="628" width="177.8" height="8" fill="#cbd5e1"/>
  <text class="label" x="6" y="650">Sync | block=4.00 MiB | buffers=3 | queue=4</text>
  <rect x="410" y="639" width="235.3" height="12" rx="2" fill="#0891b2"/>
  <text class="value" x="650.3" y="650">15.879 MiB</text>
  <rect x="410" y="666" width="177.8" height="8" fill="#cbd5e1"/>
  <text class="label" x="6" y="688">ThreadPool | block=4.00 MiB | buffers=3 | queue=4</text>
  <rect x="410" y="677" width="232.6" height="12" rx="2" fill="#0891b2"/>
  <text class="value" x="647.6" y="688">15.691 MiB</text>
  <rect x="410" y="704" width="177.8" height="8" fill="#cbd5e1"/>
  <text class="label" x="6" y="726">io_uring | block=4.00 MiB | buffers=3 | queue=4</text>
  <rect x="410" y="715" width="235.4" height="12" rx="2" fill="#0891b2"/>
  <text class="value" x="650.4" y="726">15.887 MiB</text>
  <rect x="410" y="742" width="474.3" height="8" fill="#cbd5e1"/>
  <text class="label" x="6" y="764">Sync | block=4.00 MiB | buffers=8 | queue=1</text>
  <rect x="410" y="753" width="351.6" height="12" rx="2" fill="#0891b2"/>
  <text class="value" x="766.6" y="764">23.727 MiB</text>
  <rect x="410" y="780" width="474.3" height="8" fill="#cbd5e1"/>
  <text class="label" x="6" y="802">ThreadPool | block=4.00 MiB | buffers=8 | queue=1</text>
  <rect x="410" y="791" width="352.0" height="12" rx="2" fill="#0891b2"/>
  <text class="value" x="767.0" y="802">23.754 MiB</text>
  <rect x="410" y="818" width="474.3" height="8" fill="#cbd5e1"/>
  <text class="label" x="6" y="840">io_uring | block=4.00 MiB | buffers=8 | queue=1</text>
  <rect x="410" y="829" width="352.2" height="12" rx="2" fill="#0891b2"/>
  <text class="value" x="767.2" y="840">23.762 MiB</text>
  <rect x="410" y="856" width="474.3" height="8" fill="#cbd5e1"/>
  <text class="label" x="6" y="878">Sync | block=4.00 MiB | buffers=8 | queue=4</text>
  <rect x="410" y="867" width="529.9" height="12" rx="2" fill="#0891b2"/>
  <text class="value" x="944.9" y="878">35.754 MiB</text>
  <rect x="410" y="894" width="474.3" height="8" fill="#cbd5e1"/>
  <text class="label" x="6" y="916">ThreadPool | block=4.00 MiB | buffers=8 | queue=4</text>
  <rect x="410" y="905" width="529.8" height="12" rx="2" fill="#0891b2"/>
  <text class="value" x="944.8" y="916">35.746 MiB</text>
  <rect x="410" y="932" width="474.3" height="8" fill="#cbd5e1"/>
  <text class="label" x="6" y="954">io_uring | block=4.00 MiB | buffers=8 | queue=4</text>
  <rect x="410" y="943" width="530.0" height="12" rx="2" fill="#0891b2"/>
  <text class="value" x="945.0" y="954">35.762 MiB</text>
</svg>
